<?xml version="1.0" encoding="UTF-8"?>
<svg version="1.1" xmlns="http://www.w3.org/2000/svg" width="1024" height="1024">
<path d="M0 0 C337.92 0 675.84 0 1024 0 C1024 337.92 1024 675.84 1024 1024 C686.08 1024 348.16 1024 0 1024 C0 686.08 0 348.16 0 0 Z " fill="#FEFEFE" transform="translate(0,0)"/>
<path d="M0 0 C1.92131241 0.00033989 1.92131241 0.00033989 3.88143921 0.00068665 C5.26422482 0.01600305 6.64700679 0.03165098 8.02978516 0.04760742 C9.456101 0.05320863 10.88242264 0.05747625 12.30874634 0.06047058 C16.04726333 0.07187817 19.78542592 0.10130942 23.52380371 0.13458252 C27.34475919 0.16537209 31.1657724 0.17899483 34.98681641 0.1940918 C42.47265436 0.22618368 49.95820119 0.27732971 57.44384766 0.34057617 C56.2542041 1.52103516 56.2542041 1.52103516 55.04052734 2.7253418 C53.06495204 4.71503366 51.332971 6.58412066 49.69384766 8.84057617 C49.28650391 9.38713867 48.87916016 9.93370117 48.45947266 10.49682617 C47.22729613 12.73370048 46.90136841 14.84110037 46.44384766 17.34057617 C45.16743408 17.35515869 43.89102051 17.36974121 42.57592773 17.38476562 C37.83264387 17.44281157 33.08983158 17.52004446 28.34692383 17.60302734 C26.29556949 17.636247 24.2441244 17.66428814 22.19262695 17.68701172 C19.24081817 17.72061187 16.2898388 17.77293093 13.33837891 17.82885742 C12.42361282 17.83524734 11.50884674 17.84163727 10.56636047 17.84822083 C5.74501125 17.95912486 2.33063116 18.15568827 -1.55615234 21.34057617 C-3.09371479 24.41570107 -2.71000851 27.64678279 -2.71437073 31.02200317 C-2.7193087 31.82408829 -2.72424668 32.6261734 -2.72933429 33.45256412 C-2.74475956 36.15497873 -2.75308348 38.8573695 -2.76147461 41.55981445 C-2.77104919 43.49112154 -2.78105901 45.42242651 -2.79147339 47.35372925 C-2.8185741 52.60962806 -2.83955564 57.86553589 -2.85947537 63.12146616 C-2.88130313 68.60946719 -2.90870749 74.09744023 -2.93553162 79.5854187 C-2.98550201 89.9834648 -3.03042468 100.3815264 -3.07355398 110.77960289 C-3.12288926 122.61499274 -3.17782112 134.45035453 -3.23323357 146.28571725 C-3.34712033 170.63731071 -3.45394475 194.98893109 -3.55615234 219.34057617 C-4.66132202 219.72366943 -4.66132202 219.72366943 -5.78881836 220.11450195 C-6.76520264 220.45980957 -7.74158691 220.80511719 -8.74755859 221.16088867 C-9.71121338 221.49878418 -10.67486816 221.83667969 -11.66772461 222.18481445 C-20.27914637 225.63054775 -25.49972953 230.51461911 -29.30615234 238.96557617 C-31.39990933 245.0830896 -32.12781441 251.96328293 -29.34912109 257.93432617 C-27.25787132 261.11090811 -25.01392535 263.88200146 -22.32568359 266.57495117 C-19.90920336 270.35170174 -20.46217116 273.40169127 -20.99365234 277.65307617 C-21.78756622 286.58177185 -21.04266652 291.54306009 -15.11865234 298.71557617 C-12.03008818 302.18416501 -9.57557207 304.08517897 -4.89990234 304.67651367 C1.01518801 304.91222996 1.01518801 304.91222996 6.13134766 302.34057617 C6.56447266 301.68057617 6.99759766 301.02057617 7.44384766 300.34057617 C11.16171268 301.65821033 14.39882169 303.44939155 17.75390625 305.51171875 C75.25473092 340.77499347 144.63175245 353.5246461 210.44384766 362.34057617 C211.3657489 362.46601807 212.28765015 362.59145996 213.23748779 362.72070312 C261.11586103 369.20116759 312.66050771 370.44916354 360.05029297 359.91992188 C363.57842793 359.31760071 366.87173919 359.24135094 370.44384766 359.34057617 C368.13089946 361.65352437 366.9647989 361.83638592 363.81884766 362.46557617 C363.00158203 362.6331543 362.18431641 362.80073242 361.34228516 362.97338867 C360.71580078 363.09456055 360.08931641 363.21573242 359.44384766 363.34057617 C360.50297363 363.60273926 361.56209961 363.86490234 362.65332031 364.13500977 C366.60118953 365.1128932 370.54826622 366.09394334 374.49511719 367.07592773 C376.19998229 367.49963733 377.9050581 367.9225001 379.61035156 368.34448242 C382.06843719 368.95290525 384.52573659 369.56441919 386.98291016 370.17651367 C388.11764267 370.45632584 388.11764267 370.45632584 389.27529907 370.74179077 C393.40061532 371.77290354 397.4258434 372.93455255 401.44384766 374.34057617 C359.22704251 397.67938386 284.17749203 395.159472 237.51025391 389.69116211 C234.01210651 389.29121468 230.51009881 388.94575855 227.00634766 388.59838867 C193.10805889 385.12691585 159.52421949 378.44026079 126.44384766 370.34057617 C125.35507324 370.0745459 124.26629883 369.80851562 123.14453125 369.53442383 C66.04087345 355.36024827 -11.47745382 331.66784807 -43.97802734 278.30541992 C-49.92849279 267.12620389 -51.7256348 254.32098191 -48.74365234 241.97729492 C-44.47235883 230.54268625 -36.14853875 222.32543981 -26.72216797 214.95556641 C-25.28285533 213.81153587 -23.91261006 212.5817245 -22.55615234 211.34057617 C-22.55615234 210.35057617 -22.55615234 209.36057617 -22.55615234 208.34057617 C-37.87161019 217.28693646 -50.68038788 228.85672958 -56.13427734 246.17651367 C-58.7653037 259.6727044 -55.3856353 273.42715415 -48.43115234 285.09057617 C-31.13161976 310.09968306 -3.62209094 327.3553499 23.34277344 340.32250977 C25.45797259 341.34742035 27.5584548 342.39867308 29.65869141 343.45385742 C81.34476989 369.08160977 139.81391761 382.00716957 196.44384766 391.34057617 C197.15252991 391.45781036 197.86121216 391.57504456 198.59136963 391.6958313 C211.22076492 393.75986294 223.80373339 395.15757489 236.56884766 396.02807617 C237.46882477 396.09094818 238.36880188 396.15382019 239.29605103 396.21859741 C298.41647873 400.28214922 358.13144491 395.48319883 414.44384766 376.34057617 C413.78384766 375.35057617 413.12384766 374.36057617 412.44384766 373.34057617 C413.10690918 373.04924805 413.7699707 372.75791992 414.453125 372.45776367 C419.88626069 370.07014972 425.3181699 367.67979758 430.74853516 365.28588867 C434.66519796 363.55999525 438.58515697 361.84286236 442.51416016 360.14526367 C450.83184614 356.53277585 458.91327014 352.65209796 466.87744141 348.30883789 C470.33931774 346.42262439 473.73235732 344.70456682 477.44384766 343.34057617 C462.7353886 358.5269274 440.28789358 372.3321058 419.44384766 376.34057617 C422.84358267 378.60706618 426.29519628 379.74308523 430.13134766 381.02807617 C436.3362162 383.16351794 442.42249447 385.48052074 448.44384766 388.09057617 C449.1318042 388.38407959 449.81976074 388.67758301 450.52856445 388.97998047 C455.32060961 391.09410007 455.32060961 391.09410007 456.44384766 393.34057617 C433.04752659 405.62192946 407.09690006 412.55041931 381.44384766 418.34057617 C380.06447021 418.65333496 380.06447021 418.65333496 378.65722656 418.97241211 C348.74187311 425.63524952 318.15006046 427.75267536 287.56884766 427.65307617 C286.36774353 427.65092102 285.1666394 427.64876587 283.92913818 427.64654541 C264.26873453 427.59021001 244.95298087 426.87584118 225.44384766 424.34057617 C224.66750977 424.24111694 223.89117187 424.14165771 223.09130859 424.03918457 C138.69646159 413.17154722 49.14329353 392.52052459 -44.13037109 327.57104492 C-45.72760243 326.10241514 -47.35519126 324.66602981 -49.01318359 323.26635742 C-65.0577233 309.59691493 -76.71529604 291.61745024 -78.55615234 270.34057617 C-78.93428836 254.0807275 -73.29713637 239.2353065 -62.13452148 227.38012695 C-51.30812467 216.39747951 -38.60068111 207.71312534 -24.55615234 201.34057617 C-23.56615234 201.34057617 -22.57615234 201.34057617 -21.55615234 201.34057617 C-21.88615234 200.02057617 -22.21615234 198.70057617 -22.55615234 197.34057617 C-49.10659474 208.99133723 -71.07017998 222.92756793 -82.57568359 250.48120117 C-87.99205361 266.27714878 -84.98177983 284.75959641 -77.93115234 299.40307617 C-74.34079863 306.50170879 -69.88783244 312.42936563 -64.55615234 318.34057617 C-63.94771484 319.06760742 -63.33927734 319.79463867 -62.71240234 320.54370117 C-58.70505741 325.31608469 -54.3259345 329.3451628 -49.55615234 333.34057617 C-48.71697266 334.07920898 -47.87779297 334.8178418 -47.01318359 335.57885742 C-34.42442591 346.46596234 -20.34908445 355.3229738 -5.70800781 363.18237305 C-3.42128544 364.41316621 -1.14756653 365.66640323 1.12744141 366.91870117 C15.47564815 374.71878023 30.32606556 381.18585412 45.44384766 387.34057617 C46.42095703 387.73986328 47.39806641 388.13915039 48.40478516 388.55053711 C98.36303047 408.71925449 151.59828005 420.11329841 204.69384766 428.15307617 C205.65497467 428.3003717 206.61610168 428.44766724 207.60635376 428.59942627 C232.89635037 432.44681359 257.90904256 433.7479454 283.4549408 433.71813583 C285.78470287 433.71554463 288.11445073 433.7161976 290.44421387 433.71694946 C312.68677093 433.70862692 334.46045267 432.99385534 356.44384766 429.34057617 C358.12270771 429.10542438 359.80232931 428.87559689 361.48291016 428.65307617 C365.84261461 428.04854322 370.13733127 427.24675349 374.44384766 426.34057617 C375.42224609 426.13658203 376.40064453 425.93258789 377.40869141 425.72241211 C404.66980782 419.89579418 432.42377785 411.80137189 457.44384766 399.34057617 C458.75999699 398.70202553 460.07640751 398.06401297 461.39306641 397.42651367 C474.26477 391.13305146 487.04393332 384.52034065 499.44384766 377.34057617 C499.44384766 378.00057617 499.44384766 378.66057617 499.44384766 379.34057617 C498.10546875 380.60229492 498.10546875 380.60229492 496.21728516 382.02807617 C495.52304443 382.55651123 494.82880371 383.08494629 494.11352539 383.62939453 C493.35628174 384.19408447 492.59903809 384.75877441 491.81884766 385.34057617 C491.03904541 385.92653564 490.25924316 386.51249512 489.45581055 387.11621094 C487.86307738 388.30917507 486.26777754 389.49872017 484.66992188 390.68481445 C482.78386034 392.08767356 480.91091087 393.50554285 479.04150391 394.93041992 C432.21603765 429.71670573 373.81773835 448.78733317 316.23184204 455.03715515 C314.49579198 455.22609172 312.76016336 455.41899632 311.02523804 455.61799622 C293.99543067 457.5519213 276.99729617 457.69933243 259.88134766 457.65307617 C258.42979947 457.65085392 256.97825121 457.64867739 255.52670288 457.64654541 C233.39798658 457.60154554 211.41401038 457.19518404 189.44384766 454.34057617 C188.69365356 454.24347351 187.94345947 454.14637085 187.17053223 454.04632568 C104.17609684 443.14284687 12.81223365 417.10730167 -53.55615234 364.34057617 C-54.46365234 363.62514648 -55.37115234 362.9097168 -56.30615234 362.17260742 C-78.52714391 344.33899914 -102.67434023 319.04989067 -106.55615234 289.34057617 C-107.83215843 269.99130348 -103.98412442 251.03634144 -91.45458984 235.78198242 C-89.20782126 233.24568181 -86.90330503 230.7840223 -84.55615234 228.34057617 C-83.89486328 227.62772461 -83.23357422 226.91487305 -82.55224609 226.18041992 C-68.05838886 210.98383021 -47.29826434 201.3011086 -27.80761719 194.24243164 C-26.82256195 193.88535126 -25.83750671 193.52827087 -24.82260132 193.16036987 C-24.07467316 192.88983795 -23.326745 192.61930603 -22.55615234 192.34057617 C-22.55468578 191.4357399 -22.55321922 190.53090363 -22.55170822 189.59864807 C-22.51464195 167.57276274 -22.45562952 145.54703131 -22.3722496 123.52127075 C-22.33245565 112.86972809 -22.30006494 102.21825935 -22.28515625 91.56665039 C-22.27214162 82.28172126 -22.24518166 72.99695474 -22.20153928 63.7121172 C-22.17892033 58.79672847 -22.16324193 53.88154036 -22.16426849 48.96609497 C-22.16501484 44.33670825 -22.14707402 39.70776507 -22.11498451 35.07849312 C-22.10648655 33.38223863 -22.10473489 31.68593438 -22.11034966 29.98966789 C-22.15614374 14.02471251 -22.15614374 14.02471251 -17.55615234 7.34057617 C-12.43416597 2.35337892 -7.14180043 -0.04234269 0 0 Z " fill="#023760" transform="translate(287.55615234375,202.659423828125)"/>
<path d="M0 0 C5.39610083 3.17642815 10.94095265 6.67101287 13.3125 12.6875 C12.87771739 18.12228261 12.87771739 18.12228261 10.3125 20.6875 C9.3225 20.6875 8.3325 20.6875 7.3125 20.6875 C7.33570313 21.65171875 7.35890625 22.6159375 7.3828125 23.609375 C7.40085937 24.87265625 7.41890625 26.1359375 7.4375 27.4375 C7.46070313 28.69046875 7.48390625 29.9434375 7.5078125 31.234375 C7.31913164 34.57025265 6.80390483 35.84450955 5.3125 38.6875 C5.07176806 41.50835728 5.07176806 41.50835728 5.1875 44.4375 C5.20554687 45.42234375 5.22359375 46.4071875 5.2421875 47.421875 C5.26539063 48.16953125 5.28859375 48.9171875 5.3125 49.6875 C4.39726563 49.90664062 3.48203125 50.12578125 2.5390625 50.3515625 C-1.37950188 51.97401894 -2.25184369 53.41972842 -4.3125 57.0625 C-6.44591782 60.7784531 -8.38595145 63.90928889 -11.6875 66.6875 C-16.02598291 67.34236534 -18.66638407 66.9048154 -22.3125 64.625 C-25.4454253 62.4541246 -25.4454253 62.4541246 -28.5 62.6875 C-31.20392194 63.9235786 -31.51029934 65.04545688 -32.6875 67.6875 C-32.31238281 68.17476563 -31.93726563 68.66203125 -31.55078125 69.1640625 C-28.26756661 73.71259663 -26.17110083 77.88650358 -24.5 83.25 C-22.2492089 90.07641249 -18.82522671 95.36440362 -14.52075195 101.09399414 C-11.45569733 105.23620413 -9.80113699 108.64031482 -8.6875 113.6875 C-0.89571597 107.89393155 6.48740037 101.88860216 13.55859375 95.23046875 C15.53823811 93.40245673 17.51250175 91.68483596 19.59765625 89.98828125 C22.33156507 87.97704338 22.33156507 87.97704338 23.3125 85.6875 C23.44178908 83.98088411 23.54166898 82.27197636 23.625 80.5625 C24.3542703 72.21398773 27.79708744 66.33440527 33.453125 60.20703125 C35.3125 58.6875 35.3125 58.6875 38.875 57.875 C44.12012382 59.11475654 46.80869134 61.94114156 50.25 65.9375 C51.86698233 70.12263073 51.65435418 73.42307336 50.3125 77.6875 C48.36820466 81.03218812 45.88090429 83.80576804 43.3125 86.6875 C41.40793513 88.84662138 39.51363976 91.01443755 37.625 93.1875 C37.11372559 93.77402344 36.60245117 94.36054688 36.07568359 94.96484375 C32.1222828 99.57122335 28.58023927 104.38705203 25.125 109.375 C3.9742015 139.90192567 3.9742015 139.90192567 -11.8125 143.375 C-23.62868569 140.54939038 -33.86635295 125.93240166 -40.6015625 116.546875 C-42.56468337 113.85585538 -44.65793242 111.35029106 -46.8125 108.8125 C-49.69602273 105.17329545 -49.69602273 105.17329545 -49.625 101.125 C-49.315625 100.320625 -49.00625 99.51625 -48.6875 98.6875 C-49.16566162 99.11957764 -49.64382324 99.55165527 -50.13647461 99.99682617 C-54.97698028 104.30972434 -59.97221822 108.23926878 -65.25 112 C-66.03157471 112.56050049 -66.81314941 113.12100098 -67.6184082 113.69848633 C-74.25225153 118.43059647 -80.99579904 122.98073852 -87.80810547 127.45068359 C-91.1954764 129.67988873 -94.56518403 131.93561447 -97.9375 134.1875 C-99.17180243 135.01052551 -100.40617214 135.83345014 -101.640625 136.65625 C-103.14882813 137.66171875 -103.14882813 137.66171875 -104.6875 138.6875 C-105.6775 139.3475 -106.6675 140.0075 -107.6875 140.6875 C-101.31081902 145.60360042 -94.86735008 150.28705716 -88.125 154.6875 C-77.85927403 161.42682162 -68.67233255 169.33160572 -59.6875 177.6875 C-58.62015625 178.67363281 -58.62015625 178.67363281 -57.53125 179.6796875 C-49.87236509 187.01454266 -42.45407529 195.78832242 -41.25 206.625 C-41.52219255 212.03744407 -43.32877955 216.44959206 -47.2890625 220.20703125 C-61.63632107 230.58164253 -79.93915704 236.24224264 -96.43432617 242.16967773 C-118.04055794 249.25745329 -118.04055794 249.25745329 -136.6875 261.6875 C-139.40097296 274.64086725 -140.63915431 286.83483472 -133.4375 298.4375 C-131.6875 301.6875 -131.6875 301.6875 -131.875 304.5625 C-132.6875 306.6875 -132.6875 306.6875 -133.6875 307.6875 C-139.51947062 308.53799572 -142.69916069 307.01349411 -147.4140625 303.5859375 C-156.96527951 295.61017897 -160.59362459 286.8749848 -164.609375 275.44921875 C-165.68688716 272.68906986 -166.96907101 270.16831667 -168.375 267.5625 C-170.6760251 263.05363772 -172.32749358 258.81760726 -171.6875 253.6875 C-168.15535889 248.08479341 -162.71308836 247.28858491 -156.6875 245.6875 C-147.93014444 243.10126342 -141.03617235 239.07167578 -133.6875 233.6875 C-133.14222656 233.29175781 -132.59695313 232.89601563 -132.03515625 232.48828125 C-124.72146827 227.13391846 -118.26978568 221.35810842 -112 214.8125 C-106.47943257 209.06811615 -101.45084979 205.06118609 -93.6875 202.6875 C-92.6975 202.3575 -91.7075 202.0275 -90.6875 201.6875 C-94.29677148 200.62594956 -97.87807512 199.64289731 -101.54296875 198.78515625 C-111.69445991 196.40060957 -121.35020219 193.10617476 -131.0625 189.3125 C-132.21387451 188.86656494 -133.36524902 188.42062988 -134.55151367 187.96118164 C-148.80492665 182.27716754 -165.00278163 175.51013638 -171.6875 160.6875 C-173.97219153 153.15119115 -173.57952113 145.68142086 -170.25 138.5625 C-165.7273103 130.43860538 -159.52757776 124.25355599 -152.625 118.125 C-139.59727369 106.52469432 -132.89411616 93.08784628 -126.14697266 77.24731445 C-120.19047179 63.40864464 -120.19047179 63.40864464 -115.94921875 60.4921875 C-112.90640888 59.40959884 -109.88669299 59.05663765 -106.6875 58.6875 C-107.68265625 58.43097656 -108.6778125 58.17445313 -109.703125 57.91015625 C-121.86350308 54.62878439 -134.87931929 50.42160559 -145.51049805 43.50073242 C-149.74527291 41.91880632 -153.66053345 43.25808073 -157.69091797 44.94335938 C-158.67721191 45.46736328 -159.66350586 45.99136719 -160.6796875 46.53125 C-161.78948975 47.11406738 -162.89929199 47.69688477 -164.04272461 48.29736328 C-165.20425049 48.9211084 -166.36577637 49.54485352 -167.5625 50.1875 C-168.76981056 50.82751563 -169.9775777 51.46667068 -171.18579102 52.10498047 C-173.5808446 53.37191641 -175.97284046 54.64436852 -178.36279297 55.92089844 C-181.26349688 57.46220359 -184.17472423 58.97799495 -187.09765625 60.4765625 C-187.8757666 60.87810547 -188.65387695 61.27964844 -189.45556641 61.69335938 C-190.85522576 62.41539837 -192.25709809 63.13317119 -193.66162109 63.84570312 C-197.24874268 65.71953058 -200.2752193 67.40269224 -202.6875 70.6875 C-203.34834726 73.37076775 -203.8331448 75.84244953 -204.1875 78.5625 C-204.93545866 84.24066502 -205.98007723 88.07444724 -209.6875 92.6875 C-211.9375 93.5625 -211.9375 93.5625 -213.6875 93.6875 C-214.6775 92.3675 -215.6675 91.0475 -216.6875 89.6875 C-217.285625 90.63625 -217.88375 91.585 -218.5 92.5625 C-220.6875 95.6875 -220.6875 95.6875 -223.6875 97.6875 C-226.75395803 97.6875 -228.80970695 97.46932101 -231.15234375 95.3828125 C-234.98148579 90.9210296 -235.78877197 87.6050647 -236.015625 81.8203125 C-234.41383365 71.40866869 -220.29050662 63.71938563 -212.46484375 57.64453125 C-208.46737187 54.53305916 -204.54582952 51.33213988 -200.625 48.125 C-191.16686685 40.4106713 -181.51032679 32.99393012 -171.6875 25.75 C-171.06415771 25.28899902 -170.44081543 24.82799805 -169.79858398 24.35302734 C-168.10677111 23.11339033 -166.40191066 21.89562046 -164.6875 20.6875 C-163.8521875 20.09582031 -163.016875 19.50414062 -162.15625 18.89453125 C-148.6528828 12.29241026 -124.07991903 20.51249835 -110.16186523 23.27636719 C-104.98856582 24.29355334 -99.86262714 25.08418515 -94.625 25.6875 C-81.05343033 27.4061704 -68.97398513 32.08973655 -60.0625 42.7578125 C-58.70333664 44.66527471 -57.66884772 46.56439196 -56.6875 48.6875 C-57.14195964 47.26958592 -57.60124944 45.85321954 -58.0625 44.4375 C-58.31773437 43.64859375 -58.57296875 42.8596875 -58.8359375 42.046875 C-59.63923667 39.82122042 -60.58461662 37.77818328 -61.6875 35.6875 C-60.6975 36.0175 -59.7075 36.3475 -58.6875 36.6875 C-52.88139049 37.40875489 -52.88139049 37.40875489 -47.9609375 34.63671875 C-45.07250422 30.8896962 -45.15086428 28.80979301 -45.1875 24.125 C-44.98698861 14.36939264 -42.32833522 6.06343706 -35.6875 -1.3125 C-24.83886894 -8.94591177 -10.91291853 -5.71453504 0 0 Z " fill="#012E57" transform="translate(578.6875,139.3125)"/>
<path d="M0 0 C10.0317632 -0.06790453 20.06337256 -0.12289027 30.09531403 -0.15543652 C34.75405957 -0.1710608 39.41263906 -0.19223966 44.07128906 -0.22631836 C48.57113771 -0.25902763 53.07082712 -0.27687735 57.57078552 -0.28463173 C59.28350835 -0.29015453 60.99622293 -0.3009391 62.70887756 -0.31719017 C65.11665358 -0.33911868 67.52378007 -0.34196057 69.93164062 -0.34057617 C70.63223602 -0.351362 71.33283142 -0.36214783 72.05465698 -0.3732605 C79.29411149 -0.3285199 85.83084734 1.83084734 91 7 C94.69101588 12.57170796 94.42420388 17.79524211 94.38768005 24.24183655 C94.39575836 25.94707596 94.39575836 25.94707596 94.40399987 27.68676466 C94.41831441 31.49839898 94.41116689 35.30968774 94.40405273 39.12133789 C94.40811071 41.85300091 94.41661709 44.58464624 94.42485046 47.31629944 C94.44203963 53.96671919 94.44287841 60.61704448 94.43763756 67.26748068 C94.43359559 72.67205312 94.43503972 78.07659764 94.44038582 83.48116875 C94.44113424 84.25046262 94.44188266 85.01975649 94.44265376 85.81236229 C94.44418524 87.37517044 94.44572358 88.93797858 94.44726873 90.50078671 C94.46099367 105.15304359 94.45555566 119.80524706 94.44408352 134.45750272 C94.4341465 147.86537237 94.44709987 161.27310411 94.47101771 174.6809525 C94.49539161 188.44812204 94.50502109 202.21522731 94.49836498 215.982418 C94.49486955 223.71174439 94.49712641 231.44096464 94.51461601 239.17027473 C94.52931646 245.74850275 94.53000163 252.32654987 94.5125451 258.90477426 C94.50401542 262.26149 94.5040892 265.61761593 94.51719666 268.9743576 C94.53031787 272.61159588 94.51893671 276.24794765 94.50120544 279.88514709 C94.51081045 280.9481738 94.52041546 282.0112005 94.53031152 283.10644013 C94.45841037 290.24681114 94.45841037 290.24681114 92.09367466 294.13217831 C88.4262113 297.40401788 86.00923933 297.11997532 81.15301514 297.10534668 C80.10158789 297.10414054 80.10158789 297.10414054 79.0289197 297.10291004 C76.70250746 297.09890843 74.37619133 297.08761622 72.04980469 297.07617188 C70.41299917 297.0716159 68.77619259 297.06742759 67.13938522 297.063591 C62.09288104 297.04982611 57.0464552 297.02574564 52 297 C50.50541697 296.99286846 49.01083384 296.98575703 47.51625061 296.97866821 C38.16871144 296.93282328 28.82134396 296.8679991 19.47395802 296.79807091 C15.56237769 296.76909637 11.65078666 296.74163821 7.73919678 296.71398926 C0.39865804 296.66188771 -6.94187076 296.60850838 -14.28239655 296.5546174 C-22.66758689 296.49312312 -31.0527878 296.43313336 -39.43798971 296.37324238 C-56.62533838 296.25045012 -73.81267351 296.12585818 -91 296 C-90.85377197 296.7206665 -90.70754395 297.44133301 -90.55688477 298.18383789 C-89.8900311 301.47631213 -89.2262404 304.7693968 -88.5625 308.0625 C-88.21735352 309.7630957 -88.21735352 309.7630957 -87.86523438 311.49804688 C-86.76116107 316.98641129 -85.70144749 322.44485836 -85 328 C-84.00145996 327.97905273 -83.00291992 327.95810547 -81.97412109 327.93652344 C-78.25063557 327.863833 -74.5272121 327.8180958 -70.80322266 327.78027344 C-69.19504226 327.76022373 -67.58693417 327.73297636 -65.97900391 327.69824219 C-63.6602998 327.64942736 -61.34256375 327.62696572 -59.0234375 327.609375 C-58.31069672 327.58872986 -57.59795593 327.56808472 -56.86361694 327.54681396 C-51.77184097 327.54455253 -48.91316813 328.79038145 -45 332 C-44 334 -44 334 -44 344 C-102.08 344 -160.16 344 -220 344 C-220 335 -220 335 -218.125 332 C-214.25568295 328.35828984 -210.77060947 328.86966018 -205.7109375 328.90234375 C-204.48330185 328.90446617 -204.48330185 328.90446617 -203.23086548 328.90663147 C-200.61220675 328.9122371 -197.99363296 328.92479052 -195.375 328.9375 C-193.60156373 328.94251428 -191.82812613 328.94707731 -190.0546875 328.95117188 C-185.70309218 328.96220836 -181.3515605 328.97947675 -177 329 C-176.96261719 328.37738281 -176.92523438 327.75476563 -176.88671875 327.11328125 C-176.38327889 320.0355091 -175.48212178 313.06223784 -174.45703125 306.04296875 C-174.31704712 305.07435913 -174.17706299 304.10574951 -174.03283691 303.10778809 C-173.69016176 300.73828804 -173.34584526 298.36903905 -173 296 C-174.80757027 296.01879211 -174.80757027 296.01879211 -176.6516571 296.03796387 C-191.99688886 296.19697328 -207.34217286 296.35048383 -222.6875 296.5 C-224.51547308 296.51781588 -224.51547308 296.51781588 -226.38037491 296.53599167 C-264.58845061 296.90660143 -302.79009289 297.1554123 -341 297 C-340.85594887 295.55291901 -340.7071757 294.10630754 -340.55639648 292.65991211 C-340.47405258 291.85428329 -340.39170868 291.04865448 -340.30686951 290.21861267 C-339.95960118 287.70792359 -339.28455134 285.78063847 -338.0625 283.5625 C-337.72347656 282.92441406 -337.38445312 282.28632813 -337.03515625 281.62890625 C-336 280 -336 280 -334 278 C-325.69771834 276.57802018 -317.27612817 276.8779181 -308.87969971 276.91339111 C-307.23795072 276.91653836 -305.5962008 276.91922489 -303.95445037 276.92149234 C-300.39508747 276.92738732 -296.8357523 276.93649689 -293.27640343 276.94808578 C-287.48453368 276.96692423 -281.69266136 276.97874968 -275.90077209 276.98971558 C-268.58197867 277.00409239 -261.26319348 277.02036196 -253.94440928 277.03885099 C-239.57132721 277.07513763 -225.1982482 277.09900062 -210.82513428 277.11834717 C-208.56148981 277.12145753 -206.29784535 277.12457521 -204.03420091 277.12770009 C-200.6041199 277.13242566 -197.17403889 277.13714382 -193.74395783 277.14183249 C-180.8223043 277.15954479 -167.90065318 277.17863258 -154.97900391 277.19921875 C-153.79813091 277.2010958 -152.61725791 277.20297286 -151.40060088 277.20490679 C-132.24096634 277.23583355 -113.08139004 277.28148799 -93.92179742 277.33162847 C-74.25137238 277.38266987 -54.58097826 277.41468254 -34.91049266 277.42977214 C-22.77572963 277.43975107 -10.6411952 277.46516189 1.49348912 277.51022884 C9.80151582 277.53973528 18.10944091 277.55108793 26.417519 277.54799369 C31.21418309 277.54677232 36.01047236 277.55381355 40.80705833 277.58256912 C45.19511858 277.60870849 49.58256831 277.61194426 53.97067443 277.5967072 C55.56067514 277.59528378 57.1507103 277.60238947 58.74062762 277.61873713 C60.897775 277.63969469 63.05267662 277.629968 65.20980453 277.61244583 C67.0086263 277.61610684 67.0086263 277.61610684 68.84378791 277.61984181 C72.97292621 276.80892908 74.45699301 275.2972578 77 272 C77.72658059 269.81139586 77.72658059 269.81139586 77.62082577 267.52282619 C77.63201441 266.65145564 77.64320305 265.7800851 77.65473074 264.88230938 C77.64153077 263.93464689 77.6283308 262.98698439 77.61473083 262.01060486 C77.62325572 260.48934859 77.62325572 260.48934859 77.63195282 258.93735987 C77.64488529 255.53456571 77.62203931 252.1329541 77.59936523 248.73022461 C77.60122874 246.29265595 77.60526418 243.85508812 77.61131287 241.41752625 C77.62026655 235.48175161 77.60603987 229.5462987 77.5811746 223.61059444 C77.55324534 216.69923486 77.55190162 209.78794715 77.55173159 202.87654049 C77.55054427 190.54611702 77.52557227 178.21585656 77.48706055 165.88549805 C77.44970742 153.91835576 77.42846445 141.95133201 77.42553711 129.98413086 C77.4253543 129.24693119 77.42517149 128.50973151 77.42498314 127.75019246 C77.42471468 126.64631159 77.42471468 126.64631159 77.4244408 125.5201301 C77.42407539 124.03842636 77.42370301 122.55672262 77.42332363 121.07501888 C77.42313812 120.34430884 77.4229526 119.61359879 77.42276147 118.86074602 C77.41919171 107.45877118 77.40074138 96.05681466 77.38083039 84.65485842 C77.37380706 80.52127693 77.36902478 76.38769978 77.36586904 72.25411361 C77.36034947 65.08553634 77.34468987 57.91705454 77.31768227 50.7485218 C77.31022766 48.36523379 77.3061694 45.98193244 77.30570221 43.59863281 C77.30444896 40.35311582 77.29093848 37.1078799 77.27415466 33.8624115 C77.27656975 32.91251829 77.27898483 31.96262507 77.2814731 30.98394722 C77.27087471 29.68080301 77.27087471 29.68080301 77.26006222 28.35133266 C77.2581113 27.60219677 77.25616037 26.85306088 77.25415033 26.08122391 C76.95986772 23.67135887 76.25014595 22.07138726 75 20 C71.58537277 17.51357843 68.14629876 17.72496063 64.02832031 17.68115234 C63.3352327 17.67110672 62.64214508 17.6610611 61.92805481 17.65071106 C59.64475305 17.61990236 57.36156842 17.60285066 55.078125 17.5859375 C53.49199416 17.56722396 51.90587325 17.5476504 50.31976318 17.5272522 C46.15071472 17.47594454 41.98163398 17.43631158 37.81243896 17.39910889 C33.55586777 17.35906064 29.29943067 17.30797205 25.04296875 17.2578125 C16.69539737 17.16106931 8.34777057 17.07768012 0 17 C0 11.39 0 5.78 0 0 Z " fill="#013058" transform="translate(639,203)"/>
<path d="M0 0 C12.21 0 24.42 0 37 0 C37 68.64 37 137.28 37 208 C24.79 208 12.58 208 0 208 C0 139.36 0 70.72 0 0 Z " fill="#015086" transform="translate(650,256)"/>
<path d="M0 0 C5.62110448 3.74740299 8.35759851 7.94334931 11.3125 13.875 C11.81813477 14.88240234 11.81813477 14.88240234 12.33398438 15.91015625 C16.15301452 23.88768589 17.31952723 31.00199502 17.1875 39.8125 C17.18322998 40.69977783 17.17895996 41.58705566 17.17456055 42.5012207 C17.13088472 46.95329791 16.92387999 51.27197785 16.3125 55.6875 C15.68373646 61.17410789 16.74883709 66.20034346 17.80737305 71.56713867 C18.92428146 77.25641084 19.48780857 82.8606982 19.7890625 88.65625 C19.74379781 90.95742343 19.74379781 90.95742343 21 92 C20.95359375 91.00742187 20.9071875 90.01484375 20.859375 88.9921875 C20.28263781 71.30192549 25.51809181 55.6126441 37.51953125 42.29296875 C39 41 39 41 41 41 C45.20019528 55.62538118 44.28473751 70.46963943 36.9375 83.8125 C33.7981448 89.01121854 30.24184281 93.78590559 26.37670898 98.46020508 C20.89792645 105.22912817 20.69745922 111.45109971 20.5 119.8125 C20.18090285 129.63551756 19.3454753 139.26816412 18 149 C18.17539307 148.37134033 18.35078613 147.74268066 18.53149414 147.0949707 C24.2598471 126.80728594 30.43006618 108.81665448 49.1875 96.92578125 C51 96 51 96 53 96 C53.65489663 112.39667116 50.62370527 126.51703533 39.25 138.90625 C35.78737578 142.1284142 32.05016705 144.99533194 28.23828125 147.79296875 C18.4481424 155.11907265 14.73967089 162.07224365 11.75 173.9375 C11.10054932 176.38453739 10.44954103 178.83116199 9.796875 181.27734375 C9.34538086 183.00186768 9.34538086 183.00186768 8.88476562 184.76123047 C7.75237944 188.90643885 6.41750641 192.94435665 5 197 C7.18370859 194.26100551 8.70444127 191.63112647 10.125 188.4375 C18.05723762 172.31178339 31.62993967 162.15434314 47.93359375 155.69921875 C50 155 50 155 52 155 C48.83896708 170.88834969 41.33296883 182.91714083 28.21679688 192.54760742 C23.75867191 195.46846484 18.85420255 197.45193043 13.97851562 199.56640625 C3.44963703 204.30822566 -1.15494271 210.18447004 -6.7940979 220.24945068 C-8.51607082 223.31505889 -10.28731777 226.35169421 -12.0625 229.38671875 C-12.40646317 229.97527649 -12.75042633 230.56383423 -13.10481262 231.17022705 C-16.88532747 237.58559784 -21.17603005 243.32521338 -26 249 C-26.87798224 250.07545345 -27.75421779 251.1523347 -28.62890625 252.23046875 C-38.85372713 264.71852004 -50.04426317 275.38050441 -63 285 C-63.86367188 285.64710938 -64.72734375 286.29421875 -65.6171875 286.9609375 C-81.1944044 298.24803565 -102.04719329 311.01322847 -122 310 C-122 309.01 -122 308.02 -122 307 C-121.29359375 306.81566406 -120.5871875 306.63132812 -119.859375 306.44140625 C-82.57798694 295.90332545 -48.31268114 270.54672542 -26 239 C-25.54399414 238.35643555 -25.08798828 237.71287109 -24.61816406 237.04980469 C-23.20926061 235.04330183 -21.81920629 233.02531207 -20.4375 231 C-19.79228394 230.06534912 -19.79228394 230.06534912 -19.1340332 229.11181641 C-16.91834722 225.79076583 -15.21254141 223.03164488 -15 219 C-15.52014743 216.53867535 -15.52014743 216.53867535 -16.5625 214.0625 C-17.11744141 212.62970703 -17.11744141 212.62970703 -17.68359375 211.16796875 C-19.1180974 207.71579527 -20.61943565 204.29673717 -22.125 200.875 C-27.20362031 189.01206115 -29.71909695 175.05479941 -25.5 162.4375 C-25.005 161.303125 -24.51 160.16875 -24 159 C-15.1150083 164.50869485 -10.71317205 171.88262245 -7.69140625 181.8203125 C-5.88868214 190.11080644 -6.408384 197.84489006 -9.34375 205.78125 C-10.08222365 208.27799424 -10.10943383 210.41006603 -10 213 C-5.18692835 203.46346176 -1.03316622 193.83731781 2.5 183.75 C3.0249707 182.26874634 3.0249707 182.26874634 3.56054688 180.75756836 C3.88087891 179.82178955 4.20121094 178.88601074 4.53125 177.921875 C4.81548828 177.09268555 5.09972656 176.26349609 5.39257812 175.40917969 C6.0472593 172.81255837 6.20736286 170.66725008 6 168 C4.58479904 165.65239381 4.58479904 165.65239381 2.5625 163.4375 C1.83546875 162.56996094 1.1084375 161.70242188 0.359375 160.80859375 C-0.41921875 159.88175781 -1.1978125 158.95492187 -2 158 C-14.25727198 142.59723604 -19.7156479 129.64055899 -19 110 C-7.52958648 114.8855465 -0.02795718 122.64547418 5 134 C5.49113281 135.04027344 5.49113281 135.04027344 5.9921875 136.1015625 C9.03231253 143.60053758 8.73437421 152.02206691 9 160 C11.52886675 148.7212543 13.07088158 137.5163838 14 126 C14.10957031 124.80246094 14.21914063 123.60492188 14.33203125 122.37109375 C14.58550116 117.66126913 14.68315817 114.11966211 11.6875 110.3125 C8.85933613 107.54450983 5.71547042 105.15471839 2.625 102.6875 C-10.07414118 92.46960215 -17.20883792 79.03694001 -20 63 C-20 61.68 -20 60.36 -20 59 C-10.88622248 59.95018826 -3.28331381 66.65867866 2.37109375 73.62109375 C8.1249362 82.0241874 11.63944112 90.23653158 12.7109375 100.453125 C12.85097637 102.98819738 12.85097637 102.98819738 14 105 C14.15561478 95.6791686 13.31017657 86.61478738 12.25585938 77.36474609 C12.03529337 75.32619425 11.86444496 73.2823749 11.703125 71.23828125 C10.93614325 63.66890188 8.48164291 59.09767146 4.03515625 52.97265625 C-3.83069103 41.48338604 -6.27908023 27.69368244 -5 14 C-3.79893658 9.14139954 -2.24062643 4.48125286 0 0 Z " fill="#D9940F" transform="translate(778,254)"/>
<path d="M0 0 C0.66 0 1.32 0 2 0 C3.04296875 1.5390625 3.04296875 1.5390625 4.1875 3.625 C12.28528787 16.8274106 29.01747506 21.3247952 43 26 C38.94282612 30.93440066 34.58324613 35.46253447 30.03662109 39.94165039 C27.50050738 42.45396911 25.07931726 44.99255653 22.8125 47.75 C20.2942635 50.77046906 17.51815127 53.25147795 14.5234375 55.79296875 C11.83493929 58.14436424 9.2394941 60.57681262 6.64306641 63.02880859 C-4.58075753 73.62488308 -16.12900636 83.2416772 -29.375 91.25 C-34.83646575 94.68072356 -39.38677935 98.85047148 -44.05078125 103.25390625 C-47.97227276 106.94599624 -52.15742499 110.29620047 -56.35253906 113.67041016 C-66.10639726 121.54229987 -75.8452902 129.43146748 -85 138 C-85.65355469 138.58910156 -86.30710937 139.17820312 -86.98046875 139.78515625 C-91.51801378 144.03245319 -94.24932895 148.45969656 -97 154 C-97.63596458 155.24908218 -98.27274903 156.49774713 -98.91015625 157.74609375 C-100.66125995 161.19005495 -102.36956063 164.65354851 -104.06738281 168.12402344 C-104.868277 169.73503676 -105.70782681 171.32673065 -106.5546875 172.9140625 C-110.04422824 179.74860679 -110.94825344 186.24460003 -111.640625 193.7890625 C-112 197 -112 197 -113 198 C-116.31652092 198.46431293 -118.87204531 198.61439528 -121.87890625 196.9765625 C-126.6238223 193.26671453 -129.58172074 188.87167613 -131 183 C-131.16200126 178.25041768 -130.29076488 174.00385745 -128.97265625 169.453125 C-127.3179317 162.96730437 -127.60589951 156.23279466 -127.52148438 149.58007812 C-127.49505859 148.54947266 -127.46863281 147.51886719 -127.44140625 146.45703125 C-127.42122437 145.0644812 -127.42122437 145.0644812 -127.40063477 143.64379883 C-126.91614149 140.44661563 -125.93523903 138.57929904 -124 136 C-120.56674727 134.40176166 -117.58067658 133.19900604 -113.828125 132.7265625 C-104.68704197 131.52720054 -99.70899055 124.47722137 -94.30859375 117.63671875 C-89.14597935 110.89198313 -84.61128727 103.84556469 -80.25 96.5625 C-70.83554567 80.88866152 -58.15881444 70.39781358 -40.390625 64.87890625 C-35.5205029 62.18014043 -34.21763613 58.62117745 -31.9375 53.6875 C-28.01676178 45.71517074 -23.76810164 38.14512168 -18.9375 30.6875 C-18.34735107 29.77524658 -17.75720215 28.86299316 -17.14916992 27.9230957 C-15.98855619 26.13450619 -14.8260862 24.34711962 -13.66162109 22.56103516 C-11.15063511 18.69088486 -8.69531454 14.78686563 -6.25 10.875 C-5.84386475 10.23006592 -5.43772949 9.58513184 -5.01928711 8.9206543 C-3.19728482 6.00931299 -1.45592224 3.11319542 0 0 Z " fill="#012E57" transform="translate(401,305)"/>
<path d="M0 0 C12.21 0 24.42 0 37 0 C37 50.49 37 100.98 37 153 C24.79 153 12.58 153 0 153 C0 102.51 0 52.02 0 0 Z " fill="#015086" transform="translate(586,311)"/>
<path d="M0 0 C45.54195804 0 45.54195804 0 53.375 7.25 C54.59316406 8.34054687 54.59316406 8.34054687 55.8359375 9.453125 C60.3114016 14.72027769 61.54277621 20.0981503 61.4375 26.875 C61.42775146 27.57753906 61.41800293 28.28007813 61.40795898 29.00390625 C61.10877429 37.7826951 58.79324518 42.6104585 52.4375 48.5625 C48.46393762 52 48.46393762 52 45 52 C45.49927002 52.82201904 45.99854004 53.64403809 46.51293945 54.4909668 C48.37489034 57.55664034 50.23666533 60.62242069 52.09838867 63.68823242 C52.90237753 65.01215456 53.70641335 66.33604818 54.51049805 67.65991211 C55.66988434 69.56877164 56.82909869 71.47773549 57.98828125 73.38671875 C58.34465164 73.97337814 58.70102203 74.56003754 59.06819153 75.16447449 C60.04645236 76.77571485 61.02326728 78.38783284 62 80 C62.86661255 81.38022339 62.86661255 81.38022339 63.75073242 82.78833008 C65 85 65 85 65 87 C58.7004538 87.98955911 52.18704722 88.99764107 46 87 C41.48144895 83.27965496 39.33572392 77.57531643 37.05419922 72.32275391 C35.4292369 68.74241776 33.39918131 65.42761737 31.375 62.0625 C28 56.25296443 28 56.25296443 28 54 C24.37 54 20.74 54 17 54 C17 64.89 17 75.78 17 87 C11.39 87 5.78 87 0 87 C0 58.29 0 29.58 0 0 Z " fill="#01335B" transform="translate(107,696)"/>
<path d="M0 0 C5.28 0 10.56 0 16 0 C16 29.37 16 58.74 16 89 C11.38 89 6.76 89 2 89 C1.34 87.02 0.68 85.04 0 83 C-0.680625 83.598125 -1.36125 84.19625 -2.0625 84.8125 C-9.62730792 90.4458676 -16.67324491 91.20957917 -26 90 C-34.03873952 87.45113137 -40.05313526 83.52779501 -44 76 C-48.79045744 66.35882779 -49.76328105 56.48047143 -46.375 46.1875 C-42.30540394 36.41193183 -36.64184763 30.96763405 -27.0625 26.6875 C-18.72521961 24.81586563 -11.66644338 26.24218595 -4 30 C-3.01 30.99 -2.02 31.98 -1 33 C-0.67 22.11 -0.34 11.22 0 0 Z " fill="#03335C" transform="translate(466,694)"/>
<path d="M0 0 C12.21 0 24.42 0 37 0 C37 29.7 37 59.4 37 90 C24.79 90 12.58 90 0 90 C0 60.3 0 30.6 0 0 Z " fill="#014F86" transform="translate(522,374)"/>
<path d="M0 0 C6.59055 6.89012045 10.63219281 14.92106033 11.125 24.5 C10.88735871 33.67015794 8.25219218 42.59434397 1.75 49.22265625 C-7.53056538 56.88999835 -16.58872118 57.56312604 -28.25 56.875 C-37.20810581 55.00929956 -44.06196085 49.1723177 -49.25 41.875 C-53.77388674 33.89448148 -53.56959042 22.61559107 -51.55859375 13.8671875 C-48.41779601 5.27270331 -43.40201053 0.06080207 -35.3984375 -4.1796875 C-23.87259368 -9.25105878 -10.14715738 -6.63467982 0 0 Z " fill="#02325B" transform="translate(355.25,727.125)"/>
<path d="M0 0 C5.61 0 11.22 0 17 0 C21.27219148 12.59496219 25.36154066 25.20670748 29 38 C32.00243618 30.25950009 34.57757466 22.37881041 37.1875 14.5 C37.65545865 13.09109922 38.12355645 11.68224465 38.59179688 10.2734375 C39.72947008 6.84948985 40.86525656 3.42491989 42 0 C46.29 0 50.58 0 55 0 C56.71668675 5.05113769 58.42545248 10.10485934 60.12695312 15.16113281 C60.70681638 16.88061545 61.28883229 18.59937371 61.87304688 20.31738281 C62.71271535 22.78783598 63.54459185 25.2607961 64.375 27.734375 C64.63748535 28.50118591 64.8999707 29.26799683 65.17041016 30.05804443 C66.34520915 33.58096405 67 36.2474525 67 40 C67.66 40 68.32 40 69 40 C69.12310547 38.99751221 69.24621094 37.99502441 69.37304688 36.9621582 C69.93152207 33.06877257 70.92629891 29.38291066 72.03125 25.60546875 C72.22722778 24.93203934 72.42320557 24.25860992 72.62512207 23.56477356 C73.03640598 22.15491024 73.44996786 20.74570958 73.86572266 19.3371582 C74.50296719 17.17744375 75.13290688 15.01569869 75.76171875 12.85351562 C78.84463552 2.31072897 78.84463552 2.31072897 80 0 C85.28 0 90.56 0 96 0 C93.96423719 7.66769946 91.71075836 15.21930442 89.2421875 22.7578125 C88.8936673 23.8274826 88.54514709 24.89715271 88.18606567 25.99923706 C87.45626016 28.23657748 86.72511478 30.47348126 85.99267578 32.70996094 C84.86714184 36.14901047 83.74779086 39.59003215 82.62890625 43.03125 C81.91703476 45.21105774 81.20480819 47.39074957 80.4921875 49.5703125 C80.15677948 50.6024588 79.82137146 51.6346051 79.47579956 52.69802856 C79.00993942 54.11618362 79.00993942 54.11618362 78.53466797 55.56298828 C78.12521439 56.81560959 78.12521439 56.81560959 77.70748901 58.09353638 C77 60 77 60 76 61 C73.46950598 61.07313567 70.96695163 61.09247527 68.4375 61.0625 C67.72658203 61.05798828 67.01566406 61.05347656 66.28320312 61.04882812 C64.52209987 61.03700864 62.76103964 61.01907263 61 61 C58.20467037 54.19708511 55.65193702 47.34743974 53.3125 40.375 C53.00505859 39.48554687 52.69761719 38.59609375 52.38085938 37.6796875 C50.61246076 32.41705705 49.48369961 27.53352358 49 22 C48.34 22 47.68 22 47 22 C46.98654541 22.54640137 46.97309082 23.09280273 46.95922852 23.65576172 C46.46538937 31.95057105 43.73104822 39.38285339 40.9375 47.125 C40.45926085 48.47619994 39.98203953 49.82776057 39.50585938 51.1796875 C38.35073826 54.45822255 37.1751589 57.72832351 36 61 C30.72 61 25.44 61 20 61 C17.39073898 53.19477039 14.78273583 45.38912401 12.17697144 37.58272648 C10.96708214 33.95828682 9.75663305 30.3340361 8.54492188 26.71020508 C7.37652236 23.21583757 6.20957079 19.72098967 5.04364014 16.22579765 C4.59759526 14.88951688 4.15102062 13.55341282 3.70391846 12.21748543 C3.07987406 10.35256549 2.45785353 8.48696868 1.8359375 6.62133789 C1.48063965 5.55766495 1.1253418 4.493992 0.75927734 3.39808655 C0 1 0 1 0 0 Z " fill="#DA960E" transform="translate(704,722)"/>
<path d="M0 0 C6.27 0 12.54 0 19 0 C20.78467445 4.75913186 22.4652196 9.30389759 23.90112305 14.140625 C24.24124924 15.28120361 24.58137543 16.42178223 24.93180847 17.59692383 C25.28817886 18.80243896 25.64454926 20.0079541 26.01171875 21.25 C26.57135063 23.13078247 26.57135063 23.13078247 27.14228821 25.04956055 C28.12621743 28.35641623 29.10675356 31.66426827 30.08654785 34.97235107 C31.09012668 38.3584868 32.09696464 41.74365308 33.10351562 45.12890625 C35.07217233 51.75166748 37.0372404 58.37548874 39 65 C40.76938962 61.74878711 41.83850817 58.49409891 42.87939453 54.94628906 C43.239617 53.72532532 43.59983948 52.50436157 43.97097778 51.24639893 C44.35833703 49.91949793 44.74561333 48.59257272 45.1328125 47.265625 C45.53318893 45.90360995 45.93389966 44.54169314 46.33493042 43.17987061 C47.3871086 39.60357389 48.43475025 36.02596381 49.48144531 32.44805908 C50.55129403 28.79399404 51.62543804 25.14119236 52.69921875 21.48828125 C54.80367987 14.32674754 56.90295046 7.16370824 59 0 C65.27 0 71.54 0 78 0 C71.94105012 18.8981532 65.80530743 37.76785774 59.41558838 56.55715942 C58.80948185 58.33978173 58.20476573 60.12287745 57.60150146 61.90646362 C56.74927929 64.42358613 55.89118932 66.93862994 55.03125 69.453125 C54.78371979 70.18614334 54.53618958 70.91916168 54.28115845 71.6743927 C52.4729641 76.92706277 50.30724119 81.94622089 48 87 C42.39 87 36.78 87 31 87 C28.35123416 80.46831409 25.84142252 73.9155318 23.49609375 67.26953125 C23.17596817 66.36762558 22.85584259 65.46571991 22.52601624 64.53648376 C21.49458404 61.62916803 20.46596761 58.72086563 19.4375 55.8125 C18.72542935 53.80300003 18.01318846 51.79356037 17.30078125 49.78417969 C15.87526482 45.76284167 14.45076375 41.74114597 13.02685547 37.71923828 C11.19191888 32.53852797 9.34947741 27.36052352 7.50390625 22.18359375 C6.74088279 20.04140519 5.97798032 17.89917358 5.21511841 15.75692749 C4.73973444 14.42279716 4.26388664 13.08883201 3.78756714 11.7550354 C3.13819673 9.93615899 2.49090702 8.11654011 1.84375 6.296875 C1.48474609 5.28979492 1.12574219 4.28271484 0.75585938 3.24511719 C0 1 0 1 0 0 Z " fill="#DB960F" transform="translate(535,696)"/>
<path d="M0 0 C7.54306431 4.04092731 12.59432343 9.42896719 15.6875 17.5 C16.9375 22.3125 16.9375 22.3125 16.9375 33.3125 C2.4175 33.3125 -12.1025 33.3125 -27.0625 33.3125 C-24.059762 42.87163565 -24.059762 42.87163565 -16.6875 47.5625 C-12.03587531 48.89153563 -8.38596679 48.83150658 -3.875 47.0625 C-1.17438609 45.38211801 0.82108913 43.67311212 2.9375 41.3125 C7.24514815 42.87891751 10.99921464 44.99586156 14.9375 47.3125 C11.932954 53.321592 7.22766677 57.66309205 1 60.1875 C-8.07738108 62.74341788 -18.02161595 62.77913561 -26.625 58.8125 C-34.29211992 54.38515494 -39.22346472 48.67188166 -42.0625 40.3125 C-44.35922846 30.59183942 -43.85554354 20.91385462 -38.84375 12.19140625 C-30.35402425 -0.28377408 -14.23332512 -5.98915043 0 0 Z " fill="#02315A" transform="translate(218.0625,722.6875)"/>
<path d="M0 0 C7.92934938 4.64823929 12.57659269 10.25268359 15.5625 18.9375 C16.5625 22.9375 16.5625 22.9375 16.5625 33.9375 C2.0425 33.9375 -12.4775 33.9375 -27.4375 33.9375 C-24.50298163 42.07149041 -24.50298163 42.07149041 -18.4375 46.9375 C-13.53758274 48.57080575 -9.69022027 48.36947251 -4.8125 46.6875 C-1.64373702 45.04443772 0.88852592 43.28735601 3.5625 40.9375 C7.1925 42.9175 10.8225 44.8975 14.5625 46.9375 C10.76940002 53.25933331 6.36231364 58.10756554 -0.87890625 60.46484375 C-11.75805978 62.47458051 -21.86703617 61.5192236 -31.38671875 55.7578125 C-37.09874446 51.56981968 -40.42175398 45.63062851 -42.4375 38.9375 C-43.78562293 29.87314713 -43.9393129 19.93445395 -38.984375 11.9453125 C-29.73988756 -0.05384543 -14.84848176 -6.96736452 0 0 Z " fill="#DA960F" transform="translate(843.4375,723.0625)"/>
<path d="M0 0 C7.48943939 5.26139828 12.02109453 11.48903336 14.1796875 20.53125 C14.1796875 24.49125 14.1796875 28.45125 14.1796875 32.53125 C-0.3403125 32.53125 -14.8603125 32.53125 -29.8203125 32.53125 C-26.42227552 41.22981834 -26.42227552 41.22981834 -19.8203125 45.53125 C-15.18516646 47.07629868 -11.02699892 47.55089131 -6.5546875 45.484375 C-2.52695664 43.14966078 -2.52695664 43.14966078 0.1796875 39.53125 C4.48733565 41.09766751 8.24140214 43.21461156 12.1796875 45.53125 C9.64317082 51.36011408 4.4104026 55.79441629 -1.3203125 58.46875 C-8.89402939 60.86834347 -19.4416916 60.94586313 -26.8203125 57.96875 C-34.61667806 53.72836034 -41.43047627 47.31777212 -44.4296875 38.80078125 C-46.06600014 29.29380482 -46.24234704 17.80314097 -40.8203125 9.53125 C-30.93177418 -3.15669123 -14.65361327 -8.64803406 0 0 Z " fill="#DA960F" transform="translate(688.8203125,724.46875)"/>
<path d="M0 0 C1.36369554 0.90805319 2.67145593 1.89948151 3.9609375 2.91015625 C1.90086091 6.51529028 -0.3903766 9.71346637 -3.0390625 12.91015625 C-8.7890625 11.03515625 -8.7890625 11.03515625 -11.0390625 9.91015625 C-17.12422306 9.67682338 -17.12422306 9.67682338 -23.0390625 10.91015625 C-23.0390625 12.56015625 -23.0390625 14.21015625 -23.0390625 15.91015625 C-18.93644058 18.09121881 -15.01140563 19.60711345 -10.5390625 20.84765625 C-4.37335463 22.70860452 -0.18019482 24.12668424 3.8359375 29.34765625 C5.89303454 35.86179689 5.91697985 42.81707805 3.8984375 49.34765625 C-0.21906679 54.79338773 -4.37013278 58.14794209 -11.0390625 59.91015625 C-21.7018235 60.9290423 -30.39790243 59.9717915 -39.1640625 53.66015625 C-40.0921875 52.79390625 -40.0921875 52.79390625 -41.0390625 51.91015625 C-40.45369497 48.24954804 -38.9558235 46.36480461 -36.4765625 43.66015625 C-35.83589844 42.95375 -35.19523437 42.24734375 -34.53515625 41.51953125 C-34.04144531 40.9884375 -33.54773438 40.45734375 -33.0390625 39.91015625 C-32.49636719 40.25949219 -31.95367187 40.60882812 -31.39453125 40.96875 C-30.67910156 41.42378906 -29.96367187 41.87882813 -29.2265625 42.34765625 C-28.51886719 42.80011719 -27.81117188 43.25257813 -27.08203125 43.71875 C-23.88280793 45.58445385 -21.17953138 46.08734687 -17.5390625 46.16015625 C-16.765625 46.1859375 -15.9921875 46.21171875 -15.1953125 46.23828125 C-12.98074007 46.05360843 -12.98074007 46.05360843 -11.1953125 44.70703125 C-9.75391693 42.8846875 -9.75391693 42.8846875 -10.3515625 40.22265625 C-10.5784375 39.45953125 -10.8053125 38.69640625 -11.0390625 37.91015625 C-12.26882813 37.5234375 -13.49859375 37.13671875 -14.765625 36.73828125 C-16.3985947 36.21272778 -18.03139853 35.68665874 -19.6640625 35.16015625 C-20.87642578 34.78117188 -20.87642578 34.78117188 -22.11328125 34.39453125 C-28.26311378 32.39458571 -32.89180735 30.17042483 -37.4140625 25.41015625 C-39.81184316 20.24570559 -39.79385911 15.50951476 -39.0390625 9.91015625 C-36.03247254 3.55006209 -31.12238459 -0.52911938 -24.6015625 -2.90234375 C-16.30138771 -5.31919997 -7.64539817 -4.0863335 0 0 Z " fill="#02315B" transform="translate(532.0390625,724.08984375)"/>
<path d="M0 0 C1.12486816 0.01027222 1.12486816 0.01027222 2.27246094 0.02075195 C9.58445802 0.23360664 13.79789191 1.98007058 19.375 6.9375 C24.5625 12.86607143 24.5625 12.86607143 24.5625 15.4375 C22.60600603 16.27514268 20.64724444 17.10749059 18.6875 17.9375 C17.05167969 18.63359375 17.05167969 18.63359375 15.3828125 19.34375 C12.5625 20.4375 12.5625 20.4375 10.5625 20.4375 C9.20817325 19.12549596 7.87516518 17.79118596 6.5625 16.4375 C2.85259888 14.58254944 -1.38813037 14.99040872 -5.4375 15.4375 C-9.39024101 17.54002181 -11.35212915 20.1715982 -12.93359375 24.3828125 C-14.61469013 31.23751558 -13.85636834 37.33237796 -10.4375 43.4375 C-7.69496143 46.69426455 -5.70517874 48.17401733 -1.38671875 48.67578125 C4.18064314 48.85847534 7.0835819 48.04248286 11.5625 44.4375 C12.2225 44.1075 12.8825 43.7775 13.5625 43.4375 C16.3828125 44.65234375 16.3828125 44.65234375 19.6875 46.375 C20.78320312 46.94089844 21.87890625 47.50679687 23.0078125 48.08984375 C24.27238281 48.75693359 24.27238281 48.75693359 25.5625 49.4375 C21.76921967 55.71100209 17.28216785 60.52764452 10.08984375 62.9296875 C0.79822586 64.79662773 -9.26549694 64.58283526 -17.4375 59.4375 C-23.6620115 54.44706556 -28.79034445 48.41099182 -30.4375 40.4375 C-31.3106103 29.38547095 -31.48949161 19.65711198 -24.4375 10.4375 C-17.51959026 3.44439559 -9.82167252 -0.13732764 0 0 Z " fill="#02325B" transform="translate(272.4375,720.5625)"/>
<path d="M0 0 C0 5.61 0 11.22 0 17 C-3.48307292 16.90234375 -6.96614583 16.8046875 -10.44921875 16.70703125 C-14.23992208 17.01979555 -16.02135885 17.69168825 -19 20 C-22.62906482 25.96203506 -23.1185131 31.39981195 -23.31640625 38.26953125 C-23.33718735 38.95053391 -23.35796844 39.63153656 -23.37937927 40.33317566 C-23.44437878 42.49285508 -23.50352712 44.65264846 -23.5625 46.8125 C-23.6057325 48.28321456 -23.64934825 49.75391791 -23.69335938 51.22460938 C-23.80072494 54.81629155 -23.90016514 58.40806912 -24 62 C-29.28 62 -34.56 62 -40 62 C-40 41.87 -40 21.74 -40 1 C-34.72 1 -29.44 1 -24 1 C-24 4.3 -24 7.6 -24 11 C-22.4840625 9.1128125 -22.4840625 9.1128125 -20.9375 7.1875 C-14.73238825 0.17572373 -8.95736988 -0.36811109 0 0 Z " fill="#01335C" transform="translate(415,721)"/>
<path d="M0 0 C0 4.95 0 9.9 0 15 C-3.0628125 15.3403125 -3.0628125 15.3403125 -6.1875 15.6875 C-10.42938783 16.34683691 -12.64347512 16.74833538 -16.1875 19.25 C-19.70470283 24.58644568 -20.31245942 29.75425281 -20.4140625 36.0234375 C-20.43342865 36.76961334 -20.4527948 37.51578918 -20.4727478 38.28457642 C-20.53212065 40.64793777 -20.5787578 43.01134897 -20.625 45.375 C-20.66321884 46.98569732 -20.7022728 48.59637506 -20.7421875 50.20703125 C-20.83934629 54.13791397 -20.91924712 58.06860967 -21 62 C-26.28 62 -31.56 62 -37 62 C-37 41.87 -37 21.74 -37 1 C-31.72 1 -26.44 1 -21 1 C-20.67 3.64 -20.34 6.28 -20 9 C-19.319375 8.071875 -18.63875 7.14375 -17.9375 6.1875 C-13.00196413 0.32308519 -7.24025267 -0.38106593 0 0 Z " fill="#DB9610" transform="translate(906,721)"/>
<path d="M0 0 C4.95 0 9.9 0 15 0 C15 20.13 15 40.26 15 61 C10.05 61 5.1 61 0 61 C0 40.87 0 20.74 0 0 Z " fill="#DB980F" transform="translate(619,722)"/>
<path d="M0 0 C4.3284325 1.96746932 7.10445354 4.5333324 9.30859375 8.8125 C11.12657516 14.5643056 10.93264959 21.34626775 8.8125 27 C6.55182425 30.74180813 4.25696276 33.06608438 0.1875 34.75 C-8.55680833 35.74934952 -8.55680833 35.74934952 -13.25 33.3125 C-17.71409547 29.55860153 -20.70622619 26.29411945 -21.23828125 20.328125 C-21.40064878 13.59414514 -21.23703718 9.35204697 -17 4 C-11.95804816 -0.79600297 -6.62004425 -0.95699596 0 0 Z " fill="#FCFDFD" transform="translate(456,735)"/>
<path d="M0 0 C4.08554459 2.65928465 6.07231558 5.81239817 7.3125 10.5 C8.02894245 17.16779962 8.49996731 23.91671025 4.3125 29.5 C0.65832286 33.32413887 -2.36271902 35.34140189 -7.59765625 35.703125 C-12.32093412 35.24404005 -16.19742378 32.94040701 -19.5625 29.6875 C-23.08725943 22.83380111 -23.88642517 15.62805141 -21.5625 8.3125 C-19.81514474 4.08556441 -17.4281201 2.07167632 -13.6875 -0.5 C-8.62587164 -2.18720945 -4.95320096 -2.01486141 0 0 Z " fill="#FAFCFC" transform="translate(341.6875,735.5)"/>
<path d="M0 0 C2.84625 -0.061875 5.6925 -0.12375 8.625 -0.1875 C9.51010254 -0.21481201 10.39520508 -0.24212402 11.30712891 -0.27026367 C16.29697487 -0.32248691 19.67978144 0.22652636 24 3 C27.0325208 6.53794094 27.42162177 9.58113417 27.21875 14.078125 C26.74516538 18.23890416 25.66698346 20.36812093 22.625 23.25 C17.88336012 26.41109326 13.30364257 26.12578778 7.75 26.0625 C5.1925 26.041875 2.635 26.02125 0 26 C0 17.42 0 8.84 0 0 Z " fill="#FAFBFC" transform="translate(124,711)"/>
<path d="M0 0 C0 3 0 3 -1 5 C-1.039992 6.99960012 -1.04346799 9.00047242 -1 11 C-0.11438385 10.92640762 0.7712323 10.85281525 1.6836853 10.7769928 C17.8057452 9.59661627 33.97254167 9.96525807 50.12410021 10.10053515 C54.42013804 10.13530752 58.71621884 10.16360722 63.01229858 10.19264221 C71.11845126 10.24838613 79.22455015 10.3098114 87.33064497 10.37336355 C96.57148409 10.44552911 105.81236581 10.51123061 115.05325627 10.57643402 C134.03555969 10.710515 153.01779581 10.85256773 172 11 C172 9.35 172 7.7 172 6 C172.33 6 172.66 6 173 6 C173 8.31 173 10.62 173 13 C114.92 13 56.84 13 -3 13 C-3 4 -3 4 -1.5 1.4375 C-0.7575 0.7259375 -0.7575 0.7259375 0 0 Z " fill="#001D49" transform="translate(422,534)"/>
<path d="M0 0 C0.99 0.495 0.99 0.495 2 1 C-13.09403461 14.43199485 -35.32839372 30.75239809 -56 33 C-59.36645089 32.60651873 -60.57402169 32.42597831 -63 30 C-62.00540771 29.56300781 -62.00540771 29.56300781 -60.99072266 29.1171875 C-55.55758697 26.72957354 -50.12567775 24.33922141 -44.6953125 21.9453125 C-40.7786497 20.21941908 -36.85869069 18.50228618 -32.9296875 16.8046875 C-21.68192979 11.92068108 -10.22697826 6.8179855 0 0 Z " fill="#07305B" transform="translate(763,546)"/>
<path d="M0 0 C2.97717008 1.98478006 4.62826444 3.36831119 5.44140625 6.9375 C5.66684799 10.77728188 5.23190202 12.63668683 3.125 15.9375 C0.39102013 18.5910687 -0.47384331 18.95036258 -4.3125 19.3125 C-8 19 -8 19 -10.875 17.5625 C-13.4860565 14.41387305 -13.95903508 12.21521594 -14.2109375 8.19140625 C-13.88957522 4.85280918 -12.42147504 3.21392004 -10 1 C-6.76823243 -0.61588379 -3.49384717 -0.57451407 0 0 Z " fill="#DA950E" transform="translate(630,694)"/>
<path d="M0 0 C3.82252479 2.16369328 5.32811708 3.98560948 7.3125 7.875 C7.3125 9.195 7.3125 10.515 7.3125 11.875 C-1.9275 11.875 -11.1675 11.875 -20.6875 11.875 C-19.54156378 6.14531889 -17.54990521 2.97409715 -12.8125 -0.5 C-8.24644722 -1.8429567 -4.50452842 -1.37426291 0 0 Z " fill="#FAFBFC" transform="translate(211.6875,734.125)"/>
<path d="M0 0 C4.01984572 2.50787672 5.71129964 6.15388473 7.3125 10.5 C7.3125 10.83 7.3125 11.16 7.3125 11.5 C-2.2575 11.5 -11.8275 11.5 -21.6875 11.5 C-18.56527778 2.13333333 -18.56527778 2.13333333 -13.375 -0.8125 C-8.33204129 -2.1025592 -4.84813362 -1.97212215 0 0 Z " fill="#FEFDFA" transform="translate(680.6875,734.5)"/>
<path d="M0 0 C3.28549201 2.53256676 5.5637059 5.08283428 7 9 C7 9.99 7 10.98 7 12 C-2.24 12 -11.48 12 -21 12 C-19.92060764 6.60303818 -18.76765159 4.85328004 -15 1 C-10.47631384 -1.97270805 -5.06110418 -1.29857278 0 0 Z " fill="#FEFDFA" transform="translate(837,734)"/>
<path d="M0 0 C0.495 0.99 0.495 0.99 1 2 C-36.85757796 31.26676676 -36.85757796 31.26676676 -42.71484375 30.76953125 C-45 30 -45 30 -46 28 C-48.02463255 27.34786708 -48.02463255 27.34786708 -50 27 C-42.41101307 22.90020246 -34.80216081 18.87140708 -27.0625 15.0625 C-17.83585218 10.50778869 -8.5679345 5.71195633 0 0 Z " fill="#07315C" transform="translate(786,580)"/>
<path d="M0 0 C4.95 0 9.9 0 15 0 C15 20.13 15 40.26 15 61 C10.05 61 5.1 61 0 61 C0 40.87 0 20.74 0 0 Z M1 1 C1 20.14 1 39.28 1 59 C4.96 59 8.92 59 13 59 C13 40.19 13 21.38 13 2 C9.04 1.67 5.08 1.34 1 1 Z " fill="#D68904" transform="translate(619,722)"/>
<path d="M0 0 C0.33 0 0.66 0 1 0 C1 19.47 1 38.94 1 59 C5.29 59 9.58 59 14 59 C13.98839844 57.56527344 13.97679687 56.13054688 13.96484375 54.65234375 C13.95545978 52.74739714 13.94636023 50.84244912 13.9375 48.9375 C13.92912109 47.99455078 13.92074219 47.05160156 13.91210938 46.08007812 C13.89418897 40.9369232 14.10740389 36.06741573 15 31 C15.33 31 15.66 31 16 31 C16 40.9 16 50.8 16 61 C10.72 61 5.44 61 0 61 C0 40.87 0 20.74 0 0 Z " fill="#071A3A" transform="translate(375,722)"/>
<path d="M0 0 C1.281026 0.00022659 2.562052 0.00045319 3.88189697 0.00068665 C5.27510937 0.01600543 6.66831817 0.0316534 8.06152344 0.04760742 C9.49069778 0.0532052 10.91987789 0.05747444 12.34906006 0.06047058 C16.10404454 0.07190516 19.8586789 0.10135997 23.61352539 0.13458252 C27.44770573 0.16531357 31.28194284 0.17898238 35.11621094 0.1940918 C42.63459943 0.22623137 50.15269981 0.27741047 57.67089844 0.34057617 C56.02089844 1.99057617 54.37089844 3.64057617 52.67089844 5.34057617 C52.17589844 3.85557617 52.17589844 3.85557617 51.67089844 2.34057617 C20.98089844 2.83557617 20.98089844 2.83557617 -10.32910156 3.34057617 C-5.98765251 0.08448939 -5.14566178 -0.03038777 0 0 Z " fill="#1F4169" transform="translate(287.3291015625,202.659423828125)"/>
<path d="M0 0 C0.680625 0.70125 1.36125 1.4025 2.0625 2.125 C5.20780513 5.27934337 8.5888386 8.13934304 12 11 C13.98 10.01 15.96 9.02 18 8 C19.178611 9.23874421 20.34252915 10.4914801 21.5 11.75 C22.1496875 12.44609375 22.799375 13.1421875 23.46875 13.859375 C25 16 25 16 25 20 C24.34 20 23.68 20 23 20 C23.66 21.32 24.32 22.64 25 24 C16.28474917 20.03127022 4.73138933 11.05173449 0.75 2.23046875 C0.5025 1.49441406 0.255 0.75835937 0 0 Z " fill="#062E59" transform="translate(250,488)"/>
<path d="M0 0 C0.33 1.32 0.66 2.64 1 4 C-2.06032459 5.62912132 -5.12363037 7.252557 -8.1875 8.875 C-9.48397461 9.56529297 -9.48397461 9.56529297 -10.80664062 10.26953125 C-11.64775391 10.71425781 -12.48886719 11.15898437 -13.35546875 11.6171875 C-14.51018677 12.22989502 -14.51018677 12.22989502 -15.68823242 12.85498047 C-18.08229997 14.04076321 -20.50776212 15.04011256 -23 16 C-22.41478355 12.36506403 -21.33381952 9.86402706 -19 7 C-13.86515841 3.86883155 -6.03504752 0 0 0 Z " fill="#09305B" transform="translate(259,398)"/>
<path d="M0 0 C0.66 0 1.32 0 2 0 C2 10.89 2 21.78 2 33 C-3.61 33 -9.22 33 -15 33 C-14.67 32.34 -14.34 31.68 -14 31 C-9.38 31 -4.76 31 0 31 C0 20.77 0 10.54 0 0 Z " fill="#183A60" transform="translate(122,750)"/>
<path d="M0 0 C0.66 0.33 1.32 0.66 2 1 C-15.83333333 16 -15.83333333 16 -22 16 C-22.33 15.01 -22.66 14.02 -23 13 C-22.40985107 12.67725098 -21.81970215 12.35450195 -21.21166992 12.02197266 C-18.53617092 10.55772731 -15.86182519 9.09138804 -13.1875 7.625 C-12.25873047 7.11710938 -11.32996094 6.60921875 -10.37304688 6.0859375 C-9.48037109 5.59609375 -8.58769531 5.10625 -7.66796875 4.6015625 C-6.84578857 4.15119629 -6.0236084 3.70083008 -5.17651367 3.23681641 C-3.40717238 2.23137804 -1.69327344 1.12884896 0 0 Z " fill="#0C2C58" transform="translate(763,546)"/>
<path d="M0 0 C0.33 1.65 0.66 3.3 1 5 C-1.56076097 5.67404284 -4.12326583 6.339414 -6.6875 7 C-7.40873047 7.19078125 -8.12996094 7.3815625 -8.87304688 7.578125 C-12.66850961 8.54865428 -16.04615439 9.24955239 -20 9 C-20 8.01 -20 7.02 -20 6 C-19.11957031 5.73445312 -18.23914063 5.46890625 -17.33203125 5.1953125 C-15.58986328 4.66550781 -15.58986328 4.66550781 -13.8125 4.125 C-12.66394531 3.77695312 -11.51539063 3.42890625 -10.33203125 3.0703125 C-7.06132395 2.06471095 -7.06132395 2.06471095 -4.19921875 0.8671875 C-2 0 -2 0 0 0 Z " fill="#D9900B" transform="translate(676,555)"/>
<path d="M0 0 C0.33 0 0.66 0 1 0 C1 6.93 1 13.86 1 21 C0.67 21 0.34 21 0 21 C-0.33 19.02 -0.66 17.04 -1 15 C-1.66 15 -2.32 15 -3 15 C-3 17.64 -3 20.28 -3 23 C-3.33 23 -3.66 23 -4 23 C-4 17.39 -4 11.78 -4 6 C-3.01 5.67 -2.02 5.34 -1 5 C-0.67 3.35 -0.34 1.7 0 0 Z " fill="#D48805" transform="translate(797,361)"/>
<path d="M0 0 C0.33 0 0.66 0 1 0 C1.27698721 2.56213169 1.52215772 5.12092369 1.75 7.6875 C1.83121094 8.40873047 1.91242187 9.12996094 1.99609375 9.87304688 C2.31873804 13.79855244 2.20717641 15.68474929 0.015625 19.01953125 C-0.64953125 19.67308594 -1.3146875 20.32664062 -2 21 C-3.65 19.02 -5.3 17.04 -7 15 C-6.34 14.67 -5.68 14.34 -5 14 C-3.86649466 11.98330173 -3.86649466 11.98330173 -3 10 C-2.34 11.32 -1.68 12.64 -1 14 C-0.67 9.38 -0.34 4.76 0 0 Z " fill="#D68D09" transform="translate(793,345)"/>
<path d="M0 0 C0.33 0.66 0.66 1.32 1 2 C-0.98501277 3.66728969 -2.98493731 5.30721197 -5 6.9375 C-5.55300781 7.40607422 -6.10601563 7.87464844 -6.67578125 8.35742188 C-11.09315008 11.8862395 -14.35906679 12.70929401 -20 13 C-17.24557901 9.76963126 -13.6605933 7.95907765 -10 5.9375 C-6.60265263 4.04041566 -3.24072455 2.16048304 0 0 Z " fill="#0D2350" transform="translate(786,580)"/>
<path d="M0 0 C3.3125 -0.1875 3.3125 -0.1875 7 0 C7.99 0.99 8.98 1.98 10 3 C5.05 5.475 5.05 5.475 0 8 C-0.66 6.68 -1.32 5.36 -2 4 C-1.125 1.75 -1.125 1.75 0 0 Z " fill="#083661" transform="translate(725,565)"/>
<path d="M0 0 C0.639375 0.309375 1.27875 0.61875 1.9375 0.9375 C5.92049104 2.31935403 9.81650849 2.6536543 14 3 C14 3.33 14 3.66 14 4 C11.36 4 8.72 4 6 4 C5.34 5.32 4.68 6.64 4 8 C1.5625 7.1875 1.5625 7.1875 -1 6 C-1.33 5.01 -1.66 4.02 -2 3 C-1.34 3 -0.68 3 0 3 C0 2.01 0 1.02 0 0 Z " fill="#134067" transform="translate(275,505)"/>
<path d="M0 0 C0.66 0 1.32 0 2 0 C2.33 1.32 2.66 2.64 3 4 C8.94 3.67 14.88 3.34 21 3 C21.33 3.99 21.66 4.98 22 6 C15.73 6 9.46 6 3 6 C2.01 4.02 1.02 2.04 0 0 Z " fill="#1A385E" transform="translate(150,777)"/>
<path d="M0 0 C0 3 0 3 -1.57421875 4.8671875 C-2.27160156 5.52976563 -2.96898437 6.19234375 -3.6875 6.875 C-4.41710937 7.57367188 -5.14671875 8.27234375 -5.8984375 8.9921875 C-6.93871094 9.98605469 -6.93871094 9.98605469 -8 11 C-8.94019542 11.9974662 -9.87824609 12.99696666 -10.8125 14 C-13 16 -13 16 -16 16 C-14.71175427 12.13526281 -12.87208652 11.06377127 -9.6875 8.5625 C-6.25758059 5.85611499 -3.02581739 3.15518725 0 0 Z " fill="#08234E" transform="translate(602,226)"/>
<path d="M0 0 C0.33 0.66 0.66 1.32 1 2 C-6.42857143 6.28571429 -6.42857143 6.28571429 -10 8 C-10.33 6.02 -10.66 4.04 -11 2 C-10.113125 1.855625 -9.22625 1.71125 -8.3125 1.5625 C-5.52882354 1.08980022 -2.76516243 0.56929815 0 0 Z " fill="#DA9611" transform="translate(687,552)"/>
<path d="M0 0 C5.61 0 11.22 0 17 0 C16.67 0.99 16.34 1.98 16 3 C11.05 3 6.1 3 1 3 C0.67 2.01 0.34 1.02 0 0 Z " fill="#D78B04" transform="translate(704,722)"/>
<path d="M0 0 C0.33 0 0.66 0 1 0 C0.67 4.95 0.34 9.9 0 15 C-0.66 15 -1.32 15 -2 15 C-2.66 15.66 -3.32 16.32 -4 17 C-3.67 13.7 -3.34 10.4 -3 7 C-2.01 6.67 -1.02 6.34 0 6 C0 4.02 0 2.04 0 0 Z " fill="#DD9F22" transform="translate(796,332)"/>
<path d="M0 0 C2.35171131 0.59861742 4.6859378 1.26924352 7 2 C7.33 2.66 7.66 3.32 8 4 C6.40233897 4.86627399 4.79660056 5.71766465 3.1875 6.5625 C2.29417969 7.03816406 1.40085937 7.51382813 0.48046875 8.00390625 C-2 9 -2 9 -5 8 C-3.02 7.34 -1.04 6.68 1 6 C0.67 4.02 0.34 2.04 0 0 Z " fill="#052450" transform="translate(736,592)"/>
<path d="M0 0 C2.28062828 3.42094242 2.21925007 4.68187222 2.125 8.6875 C2.10695313 9.68136719 2.08890625 10.67523438 2.0703125 11.69921875 C2.03550781 12.83810547 2.03550781 12.83810547 2 14 C-0.1793144 12.24135754 -0.93686419 11.30604 -1.51171875 8.51953125 C-1.56972656 7.62621094 -1.62773438 6.73289062 -1.6875 5.8125 C-1.75324219 4.91144531 -1.81898438 4.01039063 -1.88671875 3.08203125 C-1.92410156 2.39496094 -1.96148438 1.70789063 -2 1 C-1.34 0.67 -0.68 0.34 0 0 Z " fill="#FDFAF1" transform="translate(791,346)"/>
<path d="M0 0 C0.33 0.66 0.66 1.32 1 2 C2.32 1.67 3.64 1.34 5 1 C3.25 4.875 3.25 4.875 1 6 C1 5.01 1 4.02 1 3 C0.16855469 3.74056641 0.16855469 3.74056641 -0.6796875 4.49609375 C-1.76636719 5.45708984 -1.76636719 5.45708984 -2.875 6.4375 C-3.59429688 7.07558594 -4.31359375 7.71367188 -5.0546875 8.37109375 C-7 10 -7 10 -9 11 C-7.59155282 7.78475695 -5.89655214 5.67816132 -3.375 3.25 C-2.74335937 2.63640625 -2.11171875 2.0228125 -1.4609375 1.390625 C-0.73777344 0.70226562 -0.73777344 0.70226562 0 0 Z " fill="#D68A05" transform="translate(743,505)"/>
<path d="M0 0 C-0.33 0.99 -0.66 1.98 -1 3 C-5.51718381 4.36884358 -8.58774263 3.47075246 -13 2 C-13 1.67 -13 1.34 -13 1 C-8.59085217 -0.10228696 -4.51617599 -0.07654536 0 0 Z " fill="#EFF0EB" transform="translate(657,564)"/>
<path d="M0 0 C1.32 0.33 2.64 0.66 4 1 C3.67 1.99 3.34 2.98 3 4 C2.34 4 1.68 4 1 4 C-0.35091528 6.70183055 -0.33858058 9.11808206 -0.5625 12.125 C-0.64628906 13.22070312 -0.73007812 14.31640625 -0.81640625 15.4453125 C-0.87699219 16.28835938 -0.93757813 17.13140625 -1 18 C-1.33 18 -1.66 18 -2 18 C-2.054138 15.75026553 -2.09285491 13.50015617 -2.125 11.25 C-2.14820313 9.99703125 -2.17140625 8.7440625 -2.1953125 7.453125 C-2.01537302 4.27179508 -1.68998582 2.63478104 0 0 Z " fill="#051942" transform="translate(276,442)"/>
<path d="M0 0 C0.33 0 0.66 0 1 0 C1.02725341 1.7290774 1.04650987 3.45828176 1.0625 5.1875 C1.07410156 6.15042969 1.08570313 7.11335938 1.09765625 8.10546875 C1.00486622 10.85576513 0.62111685 13.32479591 0 16 C-0.99 14.68 -1.98 13.36 -3 12 C-2.690625 11.505 -2.38125 11.01 -2.0625 10.5 C-0.58355618 7.02013219 -0.37597149 3.75971491 0 0 Z M-5 12 C-4.34 12.66 -3.68 13.32 -3 14 C-3.66 15.32 -4.32 16.64 -5 18 C-5 16.02 -5 14.04 -5 12 Z " fill="#D48904" transform="translate(796,383)"/>
<path d="M0 0 C-0.33 0.66 -0.66 1.32 -1 2 C1.64 1.67 4.28 1.34 7 1 C3.47567443 3.34955038 1.20625886 3.77861795 -3 4 C-5.4375 2.5625 -5.4375 2.5625 -7 1 C-3.375 -1.125 -3.375 -1.125 0 0 Z " fill="#06204D" transform="translate(707,575)"/>
<path d="M0 0 C0.66 0 1.32 0 2 0 C2.66 1.98 3.32 3.96 4 6 C2.02 6.33 0.04 6.66 -2 7 C-2.33 7.99 -2.66 8.98 -3 10 C-3.33 9.34 -3.66 8.68 -4 8 C-3.22265625 6.0546875 -3.22265625 6.0546875 -2.0625 3.875 C-1.49208984 2.78832031 -1.49208984 2.78832031 -0.91015625 1.6796875 C-0.60980469 1.12539063 -0.30945313 0.57109375 0 0 Z " fill="#0A224B" transform="translate(401,305)"/>
<path d="M0 0 C2.1385485 2.1385485 2.42655063 3.13275314 3 6 C0.525 7.485 0.525 7.485 -2 9 C-2.33 6.69 -2.66 4.38 -3 2 C-2.01 1.34 -1.02 0.68 0 0 Z " fill="#DC9714" transform="translate(711,534)"/>
<path d="M0 0 C0.66 0.33 1.32 0.66 2 1 C0.15083921 5.06815373 -1.66442368 8.0094833 -5 11 C-4.55123384 9.35153231 -4.09069512 7.70626545 -3.625 6.0625 C-3.36976563 5.14597656 -3.11453125 4.22945313 -2.8515625 3.28515625 C-2 1 -2 1 0 0 Z " fill="#FAF2DE" transform="translate(786,443)"/>
<path d="M0 0 C3.87074265 0.52307333 5.30413728 1.30413728 8 4 C11.10007201 5.20049407 11.10007201 5.20049407 14 6 C11.61519919 6.83414558 10.36680914 7.11903995 7.9296875 6.328125 C7.25164063 5.97234375 6.57359375 5.6165625 5.875 5.25 C5.19179688 4.90453125 4.50859375 4.5590625 3.8046875 4.203125 C2 3 2 3 0 0 Z " fill="#D78B08" transform="translate(811,776)"/>
<path d="M0 0 C0.66 0.33 1.32 0.66 2 1 C0.54634731 2.17249353 -0.91307419 3.33783816 -2.375 4.5 C-3.18710937 5.1496875 -3.99921875 5.799375 -4.8359375 6.46875 C-7 8 -7 8 -9 8 C-7.83917375 4.51752126 -7.09067524 4.11180756 -4.0625 2.25 C-3.35222656 1.80140625 -2.64195312 1.3528125 -1.91015625 0.890625 C-1.27980469 0.59671875 -0.64945313 0.3028125 0 0 Z " fill="#0D1E49" transform="translate(763,546)"/>
<path d="M0 0 C0.66 0.33 1.32 0.66 2 1 C0.02 3.31 -1.96 5.62 -4 8 C-4.66 7.67 -5.32 7.34 -6 7 C-8.09821215 7.39938767 -8.09821215 7.39938767 -10 8 C-6.97727468 4.74475735 -3.74281699 2.38179263 0 0 Z " fill="#031B46" transform="translate(445,373)"/>
<path d="M0 0 C-0.33 1.32 -0.66 2.64 -1 4 C-2.65 4 -4.3 4 -6 4 C-6.33 3.01 -6.66 2.02 -7 1 C-3.375 -1.125 -3.375 -1.125 0 0 Z " fill="#DC9914" transform="translate(750,503)"/>
<path d="M0 0 C0.99 0.66 1.98 1.32 3 2 C0.6875 4.0625 0.6875 4.0625 -2 6 C-2.99 5.67 -3.98 5.34 -5 5 C-3.35 3.35 -1.7 1.7 0 0 Z " fill="#1B4068" transform="translate(254,423)"/>
<path d="M0 0 C0.66 0.66 1.32 1.32 2 2 C-1.465 4.97 -1.465 4.97 -5 8 C-5.66 7.34 -6.32 6.68 -7 6 C-4.69 4.02 -2.38 2.04 0 0 Z " fill="#0B2B54" transform="translate(579,246)"/>
<path d="M0 0 C0 0.99 0 1.98 0 3 C-2.64 3.33 -5.28 3.66 -8 4 C-8 3.01 -8 2.02 -8 1 C-5.23735711 0.40267181 -2.83967231 0 0 0 Z " fill="#B68227" transform="translate(664,560)"/>
<path d="M0 0 C0.66 0 1.32 0 2 0 C2.1875 3.3125 2.1875 3.3125 2 7 C1.01 7.99 0.02 8.98 -1 10 C-0.67 6.7 -0.34 3.4 0 0 Z " fill="#D88D05" transform="translate(633,700)"/>
<path d="M0 0 C0.66 0.99 1.32 1.98 2 3 C-0.475 4.485 -0.475 4.485 -3 6 C-3 5.34 -3 4.68 -3 4 C-3.99 3.67 -4.98 3.34 -6 3 C-4.02 2.01 -2.04 1.02 0 0 Z " fill="#18355F" transform="translate(753,552)"/>
<path d="M0 0 C0.33 0.66 0.66 1.32 1 2 C-0.65 3.98 -2.3 5.96 -4 8 C-4.33 7.01 -4.66 6.02 -5 5 C-3.35 3.35 -1.7 1.7 0 0 Z M-6 8 C-5.67 8.66 -5.34 9.32 -5 10 C-5.66 9.67 -6.32 9.34 -7 9 C-6.67 8.67 -6.34 8.34 -6 8 Z " fill="#03214C" transform="translate(305,425)"/>
<path d="M0 0 C0.33 1.32 0.66 2.64 1 4 C-0.8125 4.6875 -0.8125 4.6875 -3 5 C-4.75 3.5625 -4.75 3.5625 -6 2 C-2.25 0 -2.25 0 0 0 Z " fill="#021F4E" transform="translate(259,398)"/>
<path d="M0 0 C0.33 0.99 0.66 1.98 1 3 C-1.31 4.65 -3.62 6.3 -6 8 C-6.66 7.67 -7.32 7.34 -8 7 C-5.36 4.69 -2.72 2.38 0 0 Z " fill="#09214B" transform="translate(400,170)"/>
<path d="M0 0 C3.36720387 1.39332574 4.9859524 2.9789286 7 6 C4 6 4 6 1.8125 4.125 C0 2 0 2 0 0 Z " fill="#244269" transform="translate(212,546)"/>
<path d="M0 0 C0.99 0.33 1.98 0.66 3 1 C3.66 0.67 4.32 0.34 5 0 C4.67 1.65 4.34 3.3 4 5 C2.35 5 0.7 5 -1 5 C-0.67 3.35 -0.34 1.7 0 0 Z " fill="#DB9711" transform="translate(780,453)"/>
<path d="M0 0 C0.33 0.99 0.66 1.98 1 3 C3.00016466 4.20882096 3.00016466 4.20882096 5 5 C5 5.99 5 6.98 5 8 C4.01 8 3.02 8 2 8 C0.23537317 4.91190305 0 3.76687864 0 0 Z " fill="#04224B" transform="translate(418,422)"/>
<path d="M0 0 C0.33 0.66 0.66 1.32 1 2 C0.06553465 4.03144641 -0.93224776 6.03533587 -2 8 C-2.99 8 -3.98 8 -5 8 C-3.35 5.36 -1.7 2.72 0 0 Z " fill="#081E47" transform="translate(381,338)"/>
</svg>
